<?xml version="1.0" encoding="UTF-8"?>
<svg version="1.1" xmlns="http://www.w3.org/2000/svg" width="256" height="256">
<path d="M0 0 C1.4489566 -0.00845947 1.4489566 -0.00845947 2.92718506 -0.01708984 C3.98544998 -0.01304138 5.0437149 -0.00899292 6.13404846 -0.00482178 C7.24972198 -0.00832642 8.36539551 -0.01183105 9.51487732 -0.01544189 C13.21294833 -0.02426401 16.91082893 -0.01840785 20.60890198 -0.01165771 C23.17336056 -0.01300432 25.7378189 -0.01494481 28.30227661 -0.01745605 C33.68161174 -0.02040805 39.06087499 -0.0162977 44.44020081 -0.0067749 C50.65739612 0.00410412 56.87446021 0.00058807 63.09165233 -0.01042771 C69.073348 -0.02060172 75.05497952 -0.01951896 81.03668404 -0.01366425 C83.58164043 -0.01232823 86.12660016 -0.01397377 88.67155266 -0.01862335 C92.22685029 -0.02369245 95.78189473 -0.01597238 99.33717346 -0.00482178 C100.39341415 -0.00887024 101.44965485 -0.0129187 102.53790283 -0.01708984 C103.99108917 -0.00863037 103.99108917 -0.00863037 105.47363281 0 C106.31409873 0.00075405 107.15456465 0.0015081 108.02049923 0.002285 C110.57812835 0.28463757 112.13961618 0.8655618 114.30030823 2.25396729 C116.83672471 6.05859202 116.58150156 9.10985596 116.55909729 13.51739502 C116.56435425 14.78125534 116.56435425 14.78125534 116.56971741 16.07064819 C116.57852964 18.85970262 116.57268684 21.64850396 116.56593323 24.43756104 C116.56728015 26.37425282 116.56922091 28.31094427 116.57173157 30.24763489 C116.57468225 34.30877905 116.57038744 38.36983529 116.56105042 42.43096924 C116.54966354 47.63761881 116.55621088 52.84406203 116.56819534 58.050704 C116.57542193 62.05096491 116.5731222 66.0511769 116.56793976 70.05143929 C116.56660508 71.97119229 116.56824462 73.89094973 116.57289886 75.81069756 C116.57797632 78.49429971 116.57023632 81.17756775 116.55909729 83.86114502 C116.56314575 84.65556503 116.56719421 85.44998505 116.57136536 86.26847839 C116.51667184 93.37902627 116.51667184 93.37902627 114.30030823 96.25396729 C111.27862657 98.09681586 109.00138271 98.50733475 105.48709106 98.52139282 C104.52119049 98.52992279 103.55528992 98.53845276 102.56011963 98.54724121 C101.50702103 98.54633484 100.45392242 98.54542847 99.36891174 98.54449463 C98.25469849 98.55121185 97.14048523 98.55792908 95.99250793 98.56484985 C92.30469825 98.58386743 88.61707016 98.58775582 84.92921448 98.58990479 C82.36858037 98.59632949 79.807947 98.6030576 77.24731445 98.6100769 C71.87815858 98.62205867 66.50907053 98.62584233 61.13990784 98.62457275 C54.93794809 98.62337096 48.73633614 98.64448191 42.53446442 98.67606008 C36.56292348 98.70537969 30.59148868 98.71254848 24.61987114 98.7113533 C22.08130916 98.71371611 19.54274471 98.72257762 17.00422859 98.73801804 C13.45622374 98.75757969 9.9091181 98.75187805 6.36109924 98.73980713 C5.31002487 98.75104614 4.2589505 98.76228516 3.17602539 98.77386475 C-1.26326219 98.73542116 -3.94663319 98.6975193 -7.82849121 96.41110229 C-10.85988122 92.91649159 -10.81456691 90.01835403 -10.76219177 85.56646729 C-10.75316833 84.5726001 -10.7441449 83.57873291 -10.73484802 82.55474854 C-10.72324646 81.79549072 -10.7116449 81.03623291 -10.69969177 80.25396729 C-12.01687195 80.26967773 -13.33405212 80.28538818 -14.69114685 80.30157471 C-19.57194417 80.35582115 -24.45271477 80.39029819 -29.33372498 80.41876221 C-31.44737731 80.43386088 -33.56099826 80.45434154 -35.67454529 80.48028564 C-38.71034993 80.51662126 -41.74574084 80.53368273 -44.78172302 80.54693604 C-46.20216667 80.57016182 -46.20216667 80.57016182 -47.65130615 80.59385681 C-48.97233589 80.5941967 -48.97233589 80.5941967 -50.3200531 80.59454346 C-51.09504654 80.60120529 -51.87003998 80.60786713 -52.66851807 80.61473083 C-54.69969177 80.25396729 -54.69969177 80.25396729 -56.45014954 79.05032349 C-58.12102286 76.6482569 -58.07402037 75.08712997 -58.07200623 72.17169189 C-58.07823502 71.13729477 -58.08446381 70.10289764 -58.09088135 69.03715515 C-58.0816716 67.92147659 -58.07246185 66.80579803 -58.06297302 65.65631104 C-58.06372078 63.93850182 -58.06372078 63.93850182 -58.06448364 62.18598938 C-58.06214209 59.76421372 -58.05240886 57.34243567 -58.03587341 54.92071533 C-58.01226376 51.20280331 -58.01531421 47.48560716 -58.0219574 43.76763916 C-58.01638146 41.41802549 -58.00927211 39.06841485 -58.00047302 36.71881104 C-58.00138443 35.60110825 -58.00229584 34.48340546 -58.00323486 33.33183289 C-57.99370285 32.30058792 -57.98417084 31.26934296 -57.97434998 30.20684814 C-57.96974258 29.29656357 -57.96513519 28.38627899 -57.96038818 27.44841003 C-57.69969177 25.25396729 -57.69969177 25.25396729 -55.69969177 23.25396729 C-53.75080872 23.01345825 -53.75080872 23.01345825 -51.34178162 23.0269165 C-49.99060745 23.0271431 -49.99060745 23.0271431 -48.61213684 23.02737427 C-47.63813934 23.03769684 -46.66414185 23.04801941 -45.66062927 23.05865479 C-44.66463715 23.06148468 -43.66864502 23.06431458 -42.64247131 23.06723022 C-39.45309059 23.07844888 -36.263988 23.10355648 -33.07469177 23.12896729 C-30.91584165 23.13899491 -28.75698715 23.14812113 -26.59812927 23.15631104 C-21.29855479 23.17839368 -15.99914315 23.2118877 -10.69969177 23.25396729 C-10.73449646 22.1569751 -10.76930115 21.05998291 -10.80516052 19.92974854 C-10.83331043 18.47533683 -10.8606093 17.02090848 -10.88719177 15.56646729 C-10.91232849 14.84523682 -10.93746521 14.12400635 -10.96336365 13.38092041 C-11.02636409 8.78188837 -10.58541474 5.87961921 -7.69969177 2.25396729 C-4.49402057 0.11685315 -3.6814639 0.00330443 0 0 Z M30.34754944 5.61317444 C29.0331065 7.30146437 29.0331065 7.30146437 29.55030823 9.87896729 C30.07776468 12.18520798 30.07776468 12.18520798 31.30030823 13.25396729 C33.63205626 13.35951074 35.93433309 13.40075287 38.26686096 13.39923096 C39.35953781 13.40426888 39.35953781 13.40426888 40.47428894 13.40940857 C42.89417706 13.41894589 45.3139962 13.42086307 47.73390198 13.42193604 C49.40920033 13.4251467 51.08449839 13.42851062 52.75979614 13.43202209 C56.27631785 13.43802034 59.79281496 13.43986129 63.30934143 13.43927002 C67.82345927 13.43916836 72.33741995 13.4528214 76.85150051 13.47004223 C80.31295501 13.48114099 83.77437127 13.48318988 87.23584175 13.48266029 C88.90047307 13.48384359 90.56510527 13.48828484 92.22971916 13.49599266 C94.55471287 13.50574989 96.87936214 13.50293162 99.20436096 13.49688721 C99.89690475 13.50250671 100.58944855 13.50812622 101.30297852 13.51391602 C105.24367279 13.58578182 105.24367279 13.58578182 108.30030823 11.25396729 C108.71697489 8.75396729 108.71697489 8.75396729 108.30030823 6.25396729 C104.59841848 3.78604078 102.7264795 3.99520611 98.3061676 3.97930908 C97.59853775 3.97419815 96.8909079 3.96908722 96.16183472 3.96382141 C93.8224899 3.94991983 91.48343944 3.95088236 89.14405823 3.95318604 C87.51885366 3.94929981 85.89365011 3.94496529 84.26844788 3.94020081 C80.86220507 3.93273768 77.45606591 3.93303081 74.04981995 3.93829346 C69.68148887 3.94409253 65.31358118 3.92714724 60.94532013 3.90394878 C57.58932509 3.88922957 54.23343249 3.88833718 50.87741089 3.89145851 C49.26663371 3.89094452 47.65585091 3.88569229 46.04510498 3.87564659 C43.79460473 3.86333229 41.54493545 3.87004256 39.29444885 3.88165283 C38.01332214 3.88102341 36.73219543 3.88039398 35.4122467 3.87974548 C32.33536348 4.00287775 32.33536348 4.00287775 30.34754944 5.61317444 Z M-1.69969177 6.25396729 C-2.38117407 8.14575932 -2.38117407 8.14575932 -2.69969177 10.25396729 C-2.03969177 10.91396729 -1.37969177 11.57396729 -0.69969177 12.25396729 C1.3932198 12.16825067 1.3932198 12.16825067 3.30030823 11.25396729 C3.63030823 10.26396729 3.96030823 9.27396729 4.30030823 8.25396729 C3.64030823 7.59396729 2.98030823 6.93396729 2.30030823 6.25396729 C0.98030823 6.25396729 -0.33969177 6.25396729 -1.69969177 6.25396729 Z M-6.69969177 17.25396729 C-6.69969177 19.23396729 -6.69969177 21.21396729 -6.69969177 23.25396729 C-6.06031677 23.37771729 -5.42094177 23.50146729 -4.76219177 23.62896729 C-4.08156677 23.83521729 -3.40094177 24.04146729 -2.69969177 24.25396729 C-1.33129815 26.99075454 -1.4833436 29.29661152 -1.38328552 32.35552979 C-1.32044373 34.17310791 -1.32044373 34.17310791 -1.2563324 36.02740479 C-1.21701599 37.29842041 -1.17769958 38.56943604 -1.13719177 39.87896729 C-1.09400818 41.15771729 -1.05082458 42.43646729 -1.0063324 43.75396729 C-0.89999292 46.92052076 -0.79796344 50.08715481 -0.69969177 53.25396729 C1.64342953 52.99835405 3.97874226 52.66125956 6.30030823 52.25396729 C6.63030823 51.59396729 6.96030823 50.93396729 7.30030823 50.25396729 C7.91905823 50.74896729 8.53780823 51.24396729 9.17530823 51.75396729 C11.13911726 53.44619502 11.13911726 53.44619502 13.30030823 53.25396729 C8.55030823 58.12896729 8.55030823 58.12896729 6.30030823 59.25396729 C6.30030823 58.26396729 6.30030823 57.27396729 6.30030823 56.25396729 C3.99030823 56.25396729 1.68030823 56.25396729 -0.69969177 56.25396729 C-1.02969177 63.84396729 -1.35969177 71.43396729 -1.69969177 79.25396729 C-4.17469177 79.74896729 -4.17469177 79.74896729 -6.69969177 80.25396729 C-6.75358265 82.21200235 -6.79243395 84.17045637 -6.82469177 86.12896729 C-6.8478949 87.21951416 -6.87109802 88.31006104 -6.89500427 89.43365479 C-7.00029711 92.39107239 -7.00029711 92.39107239 -4.69969177 94.25396729 C-2.58233689 94.55760168 -2.58233689 94.55760168 -0.10679626 94.50793457 C1.34443382 94.51639404 1.34443382 94.51639404 2.82498169 94.52502441 C3.88998398 94.52097595 4.95498627 94.51692749 6.05226135 94.51275635 C7.17100143 94.51626099 8.28974152 94.51976562 9.44238281 94.52337646 C13.15550365 94.53220842 16.86843532 94.52633939 20.58155823 94.51959229 C23.15223731 94.52093851 25.72291615 94.52287869 28.29359436 94.52539062 C33.68729809 94.52834388 39.08093018 94.52422737 44.47462463 94.51470947 C50.71512821 94.5038246 56.95550112 94.50735008 63.19600153 94.51836228 C69.19318611 94.52852254 75.19030662 94.52745897 81.1875 94.52159882 C83.74248269 94.52026081 86.29746869 94.52191528 88.85244751 94.52655792 C92.41784104 94.53161416 95.98298058 94.52392547 99.5483551 94.51275635 C100.61335739 94.51680481 101.67835968 94.52085327 102.77563477 94.52502441 C103.74312149 94.51938477 104.71060822 94.51374512 105.70741272 94.50793457 C106.55102104 94.50718052 107.39462936 94.50642647 108.26380157 94.50564957 C110.52632301 94.43797899 110.52632301 94.43797899 112.30030823 92.25396729 C112.48797868 89.84454154 112.55229195 87.55163068 112.52735901 85.14215088 C112.52772061 84.02666839 112.52772061 84.02666839 112.52808952 82.88865089 C112.52659424 80.47644803 112.51135193 78.06455251 112.49562073 75.65240479 C112.49268095 74.16518299 112.49064011 72.67795914 112.48951721 71.19073486 C112.47902227 65.67011416 112.45109995 60.14953772 112.42530823 54.62896729 C112.38405823 42.29521729 112.34280823 29.96146729 112.30030823 17.25396729 C73.03030823 17.25396729 33.76030823 17.25396729 -6.69969177 17.25396729 Z M-46.69969177 26.25396729 C-46.69969177 27.57396729 -46.69969177 28.89396729 -46.69969177 30.25396729 C-46.03969177 30.25396729 -45.37969177 30.25396729 -44.69969177 30.25396729 C-45.02969177 28.93396729 -45.35969177 27.61396729 -45.69969177 26.25396729 C-46.02969177 26.25396729 -46.35969177 26.25396729 -46.69969177 26.25396729 Z M-53.69969177 27.25396729 C-53.36969177 28.24396729 -53.03969177 29.23396729 -52.69969177 30.25396729 C-51.70969177 29.92396729 -50.71969177 29.59396729 -49.69969177 29.25396729 C-49.69969177 28.59396729 -49.69969177 27.93396729 -49.69969177 27.25396729 C-51.01969177 27.25396729 -52.33969177 27.25396729 -53.69969177 27.25396729 Z M-49.69969177 40.25396729 C-49.69969177 40.91396729 -49.69969177 41.57396729 -49.69969177 42.25396729 C-45.07969177 42.25396729 -40.45969177 42.25396729 -35.69969177 42.25396729 C-35.69969177 41.59396729 -35.69969177 40.93396729 -35.69969177 40.25396729 C-40.31969177 40.25396729 -44.93969177 40.25396729 -49.69969177 40.25396729 Z M-44.69969177 45.25396729 C-44.69969177 45.91396729 -44.69969177 46.57396729 -44.69969177 47.25396729 C-40.73969177 47.25396729 -36.77969177 47.25396729 -32.69969177 47.25396729 C-32.69969177 46.59396729 -32.69969177 45.93396729 -32.69969177 45.25396729 C-36.65969177 45.25396729 -40.61969177 45.25396729 -44.69969177 45.25396729 Z M-28.69969177 45.25396729 C-28.69969177 45.91396729 -28.69969177 46.57396729 -28.69969177 47.25396729 C-25.06969177 47.25396729 -21.43969177 47.25396729 -17.69969177 47.25396729 C-17.69969177 46.59396729 -17.69969177 45.93396729 -17.69969177 45.25396729 C-21.32969177 45.25396729 -24.95969177 45.25396729 -28.69969177 45.25396729 Z M-49.69969177 50.25396729 C-49.69969177 50.91396729 -49.69969177 51.57396729 -49.69969177 52.25396729 C-47.71969177 52.25396729 -45.73969177 52.25396729 -43.69969177 52.25396729 C-43.69969177 51.59396729 -43.69969177 50.93396729 -43.69969177 50.25396729 C-45.67969177 50.25396729 -47.65969177 50.25396729 -49.69969177 50.25396729 Z M-39.69969177 50.25396729 C-39.69969177 50.91396729 -39.69969177 51.57396729 -39.69969177 52.25396729 C-34.41969177 52.25396729 -29.13969177 52.25396729 -23.69969177 52.25396729 C-23.69969177 51.59396729 -23.69969177 50.93396729 -23.69969177 50.25396729 C-28.97969177 50.25396729 -34.25969177 50.25396729 -39.69969177 50.25396729 Z M-49.69969177 55.25396729 C-49.69969177 55.91396729 -49.69969177 56.57396729 -49.69969177 57.25396729 C-44.08969177 57.25396729 -38.47969177 57.25396729 -32.69969177 57.25396729 C-32.69969177 56.59396729 -32.69969177 55.93396729 -32.69969177 55.25396729 C-38.30969177 55.25396729 -43.91969177 55.25396729 -49.69969177 55.25396729 Z M-28.69969177 55.25396729 C-28.69969177 55.91396729 -28.69969177 56.57396729 -28.69969177 57.25396729 C-22.75969177 57.25396729 -16.81969177 57.25396729 -10.69969177 57.25396729 C-10.69969177 56.59396729 -10.69969177 55.93396729 -10.69969177 55.25396729 C-16.63969177 55.25396729 -22.57969177 55.25396729 -28.69969177 55.25396729 Z M-49.69969177 60.25396729 C-49.69969177 60.91396729 -49.69969177 61.57396729 -49.69969177 62.25396729 C-47.71969177 62.25396729 -45.73969177 62.25396729 -43.69969177 62.25396729 C-43.69969177 61.59396729 -43.69969177 60.93396729 -43.69969177 60.25396729 C-45.67969177 60.25396729 -47.65969177 60.25396729 -49.69969177 60.25396729 Z M-39.69969177 60.25396729 C-39.69969177 60.91396729 -39.69969177 61.57396729 -39.69969177 62.25396729 C-30.78969177 62.25396729 -21.87969177 62.25396729 -12.69969177 62.25396729 C-12.69969177 61.59396729 -12.69969177 60.93396729 -12.69969177 60.25396729 C-21.60969177 60.25396729 -30.51969177 60.25396729 -39.69969177 60.25396729 Z M-49.69969177 65.25396729 C-49.69969177 66.24396729 -49.69969177 67.23396729 -49.69969177 68.25396729 C-44.74969177 68.25396729 -39.79969177 68.25396729 -34.69969177 68.25396729 C-34.69969177 67.26396729 -34.69969177 66.27396729 -34.69969177 65.25396729 C-39.64969177 65.25396729 -44.59969177 65.25396729 -49.69969177 65.25396729 Z M-44.69969177 71.25396729 C-44.69969177 71.91396729 -44.69969177 72.57396729 -44.69969177 73.25396729 C-35.78969177 73.25396729 -26.87969177 73.25396729 -17.69969177 73.25396729 C-17.69969177 72.59396729 -17.69969177 71.93396729 -17.69969177 71.25396729 C-26.60969177 71.25396729 -35.51969177 71.25396729 -44.69969177 71.25396729 Z " fill="#000000" transform="translate(90.69969177246094,83.74603271484375)"/>
<path d="M0 0 C1.94202011 0.97618418 3.83222572 1.99321758 5.69921875 3.10546875 C5.69921875 4.09546875 5.69921875 5.08546875 5.69921875 6.10546875 C3.69921875 7.79296875 3.69921875 7.79296875 1.69921875 9.10546875 C0.83296875 8.58984375 -0.03328125 8.07421875 -0.92578125 7.54296875 C-5.67278632 5.52109622 -8.55795596 6.52452699 -13.30078125 8.10546875 C-14.78563579 11.61512494 -14.69373946 15.37236579 -14.30078125 19.10546875 C-12.38411458 22.18880208 -12.38411458 22.18880208 -9.30078125 24.10546875 C-4.72713531 24.67717449 -1.43297676 24.10895748 2.69921875 22.10546875 C3.68921875 23.09546875 4.67921875 24.08546875 5.69921875 25.10546875 C4.68523843 28.37273867 3.63665297 29.14249748 0.63671875 30.91796875 C-3.78503283 32.59454956 -7.77781844 32.31049169 -12.30078125 31.10546875 C-17.0973993 28.66190861 -19.99333593 25.98660307 -22.30078125 21.10546875 C-23.07839257 15.78121162 -23.00124468 11.5323387 -20.61328125 6.66796875 C-14.93108713 0.37148337 -8.45495906 -3.28724215 0 0 Z " fill="#000000" transform="translate(170.30078125,120.89453125)"/>
<path d="M0 0 C3.361875 -0.0825 6.72375 -0.165 10.1875 -0.25 C11.23832764 -0.28641602 12.28915527 -0.32283203 13.37182617 -0.36035156 C17.69855406 -0.41179602 20.32581235 -0.38477211 24.1484375 1.796875 C26 4 26 4 26.4375 7.5 C26.05282802 10.57737588 25.64756442 12.4256806 24 15 C24.474375 15.37125 24.94875 15.7425 25.4375 16.125 C27.6161345 18.7393614 27.86489008 20.62225193 28 24 C26.77911638 26.98438217 25.83659962 28.51957645 23.02734375 30.1328125 C18.57737664 31.40751276 14.28805895 31.20888272 9.6875 31.125 C4.8921875 31.063125 4.8921875 31.063125 0 31 C0 20.77 0 10.54 0 0 Z M7 5 C7 7.31 7 9.62 7 12 C8.62463842 12.05395478 10.24978541 12.09277195 11.875 12.125 C12.77992188 12.14820313 13.68484375 12.17140625 14.6171875 12.1953125 C17.18806994 12.24324836 17.18806994 12.24324836 19 10 C18.83333333 7.91666667 18.83333333 7.91666667 18 6 C15.59454362 4.79727181 14.05003047 4.89928528 11.375 4.9375 C10.55773437 4.94652344 9.74046875 4.95554687 8.8984375 4.96484375 C8.27195312 4.97644531 7.64546875 4.98804687 7 5 Z M7 18 C7 20.31 7 22.62 7 25 C8.97909398 25.02686553 10.95828971 25.04633375 12.9375 25.0625 C14.59072266 25.07990234 14.59072266 25.07990234 16.27734375 25.09765625 C18.91447634 25.31262571 18.91447634 25.31262571 20 24 C20.04063832 22.33382885 20.042721 20.66611905 20 19 C17.35541621 17.67770811 15.32238699 17.90322806 12.375 17.9375 C10.87066406 17.95103516 10.87066406 17.95103516 9.3359375 17.96484375 C8.17964844 17.98224609 8.17964844 17.98224609 7 18 Z " fill="#000000" transform="translate(117,121)"/>
</svg>
